<?xml version="1.0" standalone="no"?>
<!DOCTYPE svg PUBLIC "-//W3C//DTD SVG 20010904//EN"
 "http://www.w3.org/TR/2001/REC-SVG-20010904/DTD/svg10.dtd">
<svg version="1.0" xmlns="http://www.w3.org/2000/svg"
 width="309.000000pt" height="309.000000pt" viewBox="0 0 309.000000 309.000000"
 preserveAspectRatio="xMidYMid meet">
<metadata>
Created by potrace 1.14, written by Peter Selinger 2001-2017
</metadata>
<g transform="translate(0.000000,309.000000) scale(0.100000,-0.100000)"
fill="#000000" stroke="none">
<path d="M0 1545 l0 -1545 1545 0 1545 0 0 1545 0 1545 -1545 0 -1545 0 0
-1545z m852 -292 c22 -20 24 -63 3 -63 -9 0 -20 12 -25 26 -7 16 -16 24 -28
22 -15 -3 -17 -16 -17 -103 0 -92 2 -100 20 -103 13 -2 24 5 30 19 16 35 35
35 35 1 0 -36 -19 -53 -61 -54 -23 -1 -38 6 -52 23 -16 20 -18 36 -15 122 2
84 6 101 22 113 26 19 65 18 88 -3z m158 -3 c22 -22 28 -88 8 -108 -8 -8 -8
-15 -1 -24 6 -7 13 -37 15 -66 5 -49 4 -53 -16 -50 -18 3 -21 11 -24 56 -3 45
-6 52 -23 52 -19 0 -21 -5 -17 -55 3 -53 2 -55 -22 -55 l-25 0 0 135 0 135 43
0 c29 0 48 -6 62 -20z m493 8 c9 -7 19 -25 23 -40 5 -24 3 -28 -14 -28 -14 0
-22 8 -24 23 -2 14 -10 22 -23 22 -15 0 -21 -8 -23 -32 -3 -27 2 -34 27 -47
39 -21 61 -53 61 -91 0 -39 -9 -51 -44 -64 -42 -17 -80 5 -84 48 -4 38 16 40
33 3 6 -13 19 -22 32 -22 19 0 23 5 23 34 0 28 -8 40 -45 70 -36 30 -45 44
-45 68 0 57 59 89 103 56z m158 2 c26 -14 27 -73 2 -68 -10 2 -19 13 -21 26
-2 14 -10 22 -23 22 -15 0 -19 -7 -19 -34 0 -28 6 -38 35 -56 40 -25 55 -48
55 -83 0 -64 -83 -96 -122 -47 -10 13 -18 30 -16 38 5 26 27 25 38 -2 7 -19
17 -26 35 -26 22 0 25 4 25 35 0 29 -6 38 -45 65 -40 28 -45 35 -45 70 0 22 7
45 16 54 18 18 56 21 85 6z m121 -54 c17 -36 35 -63 40 -60 5 3 22 32 38 65
20 38 36 59 48 59 15 0 17 -14 17 -135 l0 -135 -25 0 c-25 0 -25 0 -22 87 l2
88 -25 -47 c-14 -27 -30 -48 -35 -48 -5 0 -21 21 -35 48 l-25 47 2 -88 c3 -87
3 -87 -22 -87 l-25 0 0 135 c0 122 2 135 18 135 11 0 28 -22 49 -64z m265 52
c6 -7 18 -60 27 -118 9 -58 21 -109 26 -114 18 -18 10 -26 -25 -26 -32 0 -35
2 -25 19 14 28 2 51 -27 51 -23 0 -25 -3 -21 -35 4 -33 2 -35 -25 -35 -27 0
-29 2 -22 28 19 72 42 207 38 223 -4 15 0 19 20 19 13 0 29 -6 34 -12z m193
-8 c22 -22 26 -70 10 -101 -7 -12 -7 -26 -2 -36 5 -10 12 -39 14 -65 5 -45 4
-48 -18 -48 -21 0 -23 5 -26 53 -3 45 -6 52 -25 55 -20 3 -23 -1 -23 -33 0
-20 5 -45 10 -56 10 -17 7 -19 -25 -19 -32 0 -35 2 -25 19 13 25 13 218 0 226
-20 13 2 25 46 25 31 0 50 -6 64 -20z m104 -27 l-6 -48 24 39 c25 42 53 65 65
53 4 -5 2 -16 -5 -25 -7 -9 -22 -37 -35 -60 l-22 -44 37 -69 c36 -67 36 -69
15 -69 -17 0 -30 13 -50 53 l-27 52 3 -52 c4 -51 3 -53 -22 -53 l-26 0 0 135
0 135 27 0 c27 0 27 -1 22 -47z"/>
<path d="M950 1190 c0 -44 3 -51 18 -48 13 3 17 13 17 48 0 35 -4 45 -17 48
-15 3 -18 -4 -18 -48z"/>
<path d="M2016 1167 c-8 -62 -6 -71 16 -65 11 2 12 14 3 63 l-11 60 -8 -58z"/>
<path d="M2177 1233 c-4 -3 -7 -26 -7 -50 0 -40 2 -44 23 -41 38 5 35 97 -4
98 -3 0 -9 -3 -12 -7z"/>
</g>
</svg>
